<svg width="220.00000000000003" height="65" xmlns="http://www.w3.org/2000/svg" version="1.1" xml:space="preserve">
 <g>
  <title>Layer 1</title>
  <text transform="matrix(1 0 0 1 0 0)" x="25.97794" fill="#FFFFFF" stroke-width="0" y="31" id="svg_34" font-size="28" font-family="Noto Sans JP" text-anchor="start" xml:space="preserve">实时计算平台</text>
  <text transform="matrix(1 0 0 1 0 0)" fill="#FFFFFF" stroke-width="0" x="0" y="55.14925" id="svg_35" font-size="16" font-family="Noto Sans JP" text-anchor="start" xml:space="preserve">powered by</text>
  <text transform="matrix(1 0 0 1 0 0)" fill="#FFFFFF" stroke-width="0" x="121.69657" y="55.44776" id="svg_36" font-size="16" font-family="Noto Sans JP" text-anchor="start" xml:space="preserve">Melon Wang</text>
  <g id="svg_1">
   <path class="st0" d="m114.25572,50.5l-2,-3.9c-0.3,-0.9 -1.3,-1.3 -2.2,-1c-0.5,0.2 -0.8,0.5 -1,1l-0.6,1.2l-0.2,0.5l-0.9,1.8l-0.2,0.4l-0.8,1.6l-0.1,0.2l-0.2,0.5l-0.1,0.3c-0.8,1.8 -2.9,2.7 -4.7,1.9c-0.9,-0.4 -1.5,-1 -1.9,-1.9l-3.5,-6.9c-0.4,1.1 -0.5,2.2 -0.5,3.4c0.1,6.2 5.2,11.2 11.4,11.2l0,0c4.1,0 7.9,-2.1 10,-5.7l-1.5,-2.9l-1,-1.7z" fill="#FFFFFF" id="svg_9" stroke="null"/>
   <path class="st0" d="m106.65572,38.4c-4.1,0 -7.9,2.1 -9.9,5.7l4.3,8.6c0.2,0.6 0.8,1 1.5,0.9c0.6,0 1.2,-0.3 1.5,-0.9l2.5,-4.9l0,0l0.8,-1.6c0.5,-1.4 1.9,-2.4 3.4,-2.3c1.5,0 2.9,0.9 3.4,2.3l3.5,6.8c0.4,-1.1 0.5,-2.2 0.5,-3.4c-0.2,-6.3 -5.3,-11.3 -11.5,-11.2l0,0l0,0z" fill="#FFFFFF" id="svg_10"/>
  </g>
 </g>

</svg>